<?xml version="1.0" standalone="no"?>
<!DOCTYPE svg PUBLIC "-//W3C//DTD SVG 1.1//EN" "http://www.w3.org/Graphics/SVG/1.1/DTD/svg11.dtd" >
<svg xmlns="http://www.w3.org/2000/svg" xmlns:xlink="http://www.w3.org/1999/xlink" version="1.1">
<metadata></metadata>
<defs>
<font id="wendelinregular" horiz-adv-x="1521" >
<font-face units-per-em="2048" ascent="1606" descent="-442" />
<missing-glyph horiz-adv-x="1024" />
<glyph horiz-adv-x="0" />
<glyph unicode="&#xd;" horiz-adv-x="1024" />
<glyph unicode=" "  horiz-adv-x="1024" />
<glyph unicode="&#x09;" horiz-adv-x="1024" />
<glyph unicode="&#xa0;" horiz-adv-x="1024" />
<glyph unicode="A" horiz-adv-x="1275" d="M23 0h157l129 430h502l129 -430h197l-457 1466h-203zM348 563l201 676q4 12 7 32.5t4 35t1 16.5q0 -2 2 -16.5t5 -36t5 -31.5l199 -676h-424z" />
<glyph unicode="B" horiz-adv-x="1349" d="M166 0h477q98 0 182 13.5t164 76.5q72 55 103.5 141t31.5 177q0 68 -20.5 130t-59 112t-92 85t-118.5 49v4q106 27 171.5 121.5t65.5 214.5q0 98 -37 167t-98.5 112t-140 63.5t-160.5 20.5h-469v-1487zM342 150v559h268q72 0 134.5 -14.5t107.5 -49.5t70.5 -91t25.5 -138 q0 -74 -24.5 -124t-67.5 -82t-100.5 -46t-120.5 -14h-293zM342 844v499h256q57 0 110.5 -12t95.5 -39.5t67.5 -74t25.5 -115.5q0 -78 -28.5 -128t-76 -79t-107.5 -40t-122 -11h-221z" />
<glyph unicode="C" horiz-adv-x="1439" d="M86 748q0 -141 36 -278.5t108.5 -246t184 -176t263.5 -67.5q117 0 206 30.5t153.5 88t108.5 138t73 181.5l-160 35q-20 -70 -50 -128.5t-75 -101.5t-107.5 -67.5t-148.5 -24.5q-111 0 -187.5 61.5t-124 152.5t-69 195.5t-21.5 192.5q0 92 21.5 197.5t70 196t126 149.5 t192.5 59q84 0 143.5 -22.5t102.5 -63.5t70.5 -97t50.5 -124l166 31q-25 98 -69 177t-108.5 135t-150.5 86t-199 30q-154 0 -267.5 -60.5t-188 -163t-112.5 -235.5t-38 -280z" />
<glyph unicode="D" horiz-adv-x="1542" d="M174 0h561q150 0 261.5 60.5t186 163t111.5 235.5t37 278q0 160 -43 293t-126 230.5t-204.5 151.5t-279.5 54h-504v-1466zM350 150v1169h318q125 0 217 -46t151.5 -126t88 -185.5t28.5 -224.5t-27.5 -225t-87 -187t-150.5 -128t-220 -47h-318z" />
<glyph unicode="E" horiz-adv-x="1236" d="M174 0h868v152h-692v544h545v142h-545v475h672v151h-848v-1464z" />
<glyph unicode="F" horiz-adv-x="1073" d="M168 0h176v696h547v142h-547v477h643v151h-819v-1466z" />
<glyph unicode="G" d="M98 719q0 -143 41 -276.5t122 -237t202 -164.5t280 -61q137 0 236.5 39.5t164 89t94.5 89.5l30 40v53q0 55 1 133t1 162v143h-471v-147h297v-287l-20 -27q-19 -26 -61 -58t-110.5 -58.5t-167.5 -26.5q-121 0 -207 56.5t-141 144.5t-80.5 194.5t-25.5 206.5 q0 98 22.5 207.5t74.5 200t137 149.5t208 59q74 0 133.5 -21.5t105.5 -57t77.5 -82.5t48.5 -99l165 41q-57 164 -184 263.5t-334 99.5q-162 0 -281.5 -63.5t-199.5 -169t-119 -245t-39 -290.5z" />
<glyph unicode="H" horiz-adv-x="1501" d="M166 0h176v698h672v-698h176v1466h-176v-614h-672v614h-176v-1466z" />
<glyph unicode="I" horiz-adv-x="661" d="M176 0h176v1466h-176v-1466z" />
<glyph unicode="J" horiz-adv-x="948" d="M35 8q99 -28 198 -28h7q121 0 201.5 33.5t130 96t70 151.5t20.5 198v1007h-177v-1007q0 -80 -7 -141.5t-34.5 -103.5t-82 -62.5t-146.5 -20.5q-47 0 -91 5t-89 16v-144z" />
<glyph unicode="K" horiz-adv-x="1398" d="M176 0h176v436l199 244l520 -680h215l-618 811l508 655h-195l-629 -815v815h-176v-1466z" />
<glyph unicode="L" horiz-adv-x="1132" d="M172 0h809v156h-633v1310h-176v-1466z" />
<glyph unicode="M" horiz-adv-x="1890" d="M129 0h162l61 1188v135h8q0 -4 4.5 -24.5t12.5 -52.5t16 -56l422 -1190h119l393 1137q14 43 26.5 88t18.5 69.5t6 28.5h8v-199l62 -1124h184l-69 1466h-258l-383 -1099q-8 -23 -15.5 -54.5t-11.5 -51t-4 -21.5q0 2 -3 20.5t-10.5 49t-17.5 57.5l-393 1099h-262z" />
<glyph unicode="N" horiz-adv-x="1480" d="M168 0h147v1303l13 -36q14 -36 34 -71l668 -1196h172v1466h-147v-1220l-13 32q-12 31 -30 64l-623 1124h-221v-1466z" />
<glyph unicode="O" d="M90 723q0 -141 37 -274.5t111.5 -238t187 -167.5t264.5 -63q150 0 261.5 68.5t186 179t111.5 247.5t37 275q0 137 -38 269t-112.5 236.5t-187 168t-260.5 63.5q-152 0 -264.5 -66.5t-186 -175t-110.5 -246t-37 -276.5zM274 721q0 94 21.5 202.5t71 202t130.5 154.5 t197 61q113 0 191 -60t126 -150.5t69.5 -196t21.5 -195.5t-21.5 -197.5t-70.5 -200.5t-128 -155.5t-192 -62.5q-111 0 -189.5 59.5t-128.5 148.5t-74 194.5t-24 195.5z" />
<glyph unicode="P" horiz-adv-x="1255" d="M131 0h176v602h295q94 0 178 26.5t147.5 81t99.5 134.5t36 186q0 115 -37 198t-102.5 136t-153.5 77.5t-188 24.5h-451v-1466zM307 748v571h289q129 0 209 -76t80 -213q0 -70 -23.5 -122t-63.5 -88t-95.5 -54t-118.5 -18h-277z" />
<glyph unicode="Q" d="M90 723q0 -133 32 -259t97.5 -227.5t164.5 -169t234 -81.5l-6 -232h168l-6 232q127 18 222.5 91t160 180.5t97 235.5t32.5 257q0 137 -38 269t-112.5 236.5t-187 168t-260.5 63.5q-152 0 -264.5 -66.5t-186 -175t-110.5 -246t-37 -276.5zM274 721q0 94 21.5 202.5t71 202 t130.5 154.5t197 61q113 0 191 -60t126 -150.5t69.5 -196t21.5 -195.5t-21.5 -198.5t-70.5 -201.5t-128 -155.5t-192 -62.5q-111 0 -189.5 59.5t-128.5 149.5t-74 195.5t-24 195.5z" />
<glyph unicode="R" horiz-adv-x="1378" d="M166 0h176v639h184q70 -55 139.5 -137t127 -167t104.5 -163t70.5 -123t25.5 -49h219q-2 4 -29.5 54t-79.5 135t-112.5 174.5t-128 171t-127.5 127.5q66 6 131.5 38.5t117.5 86t84 122t32 148.5q0 111 -39 188.5t-103.5 126.5t-149.5 71.5t-177 22.5h-465v-1466zM342 782 v533h289q59 0 112.5 -14.5t93.5 -46t63.5 -80t23.5 -115.5q0 -72 -25 -124t-68 -86t-100 -50.5t-121 -16.5h-268z" />
<glyph unicode="S" horiz-adv-x="1359" d="M86 358q41 -100 90 -171.5t113.5 -117.5t149.5 -67.5t196 -21.5q98 0 189 23.5t161 74.5t112 131t42 192q0 90 -33 157t-86 116t-123 84t-145 61l-170 62q-47 16 -93.5 34.5t-82 45t-57 65.5t-21.5 98q0 57 25.5 99.5t65.5 70t90 41t99 13.5q123 0 206 -57.5t118 -170.5 l160 43q-66 168 -180.5 246t-299.5 78q-92 0 -174 -22.5t-145.5 -69.5t-100 -121t-36.5 -174q0 -86 30.5 -149.5t81.5 -108.5t118 -78t138 -57l193 -68q45 -16 89 -38.5t76.5 -54.5t53 -73t20.5 -94q0 -70 -27.5 -118t-71.5 -76.5t-101.5 -42t-116.5 -13.5q-154 0 -248 59.5 t-147 204.5z" />
<glyph unicode="T" horiz-adv-x="1112" d="M2 1313h420v-1313h176v1313h420v153h-1016v-153z" />
<glyph unicode="U" horiz-adv-x="1460" d="M166 516q0 -129 26.5 -229.5t85 -168t153.5 -103t233 -35.5q131 0 225 38.5t152.5 109.5t86 169t27.5 219v950h-174v-950q0 -84 -14.5 -154.5t-49 -121t-93 -78t-146.5 -27.5q-98 0 -163.5 25.5t-103.5 75t-53.5 120t-15.5 160.5v950h-176v-950z" />
<glyph unicode="V" horiz-adv-x="1275" d="M20 1466l476 -1466h174l483 1466h-168l-354 -1112q-8 -29 -16.5 -65.5t-13.5 -58t-5 -25.5q0 4 -4 25.5t-12.5 58.5t-18.5 67l-356 1110h-185z" />
<glyph unicode="W" horiz-adv-x="1808" d="M27 1466l364 -1466h174l250 1044q6 29 13.5 72t11.5 69.5t4 31.5q0 -4 4 -32t12 -71t17 -70l264 -1044h182l346 1466h-160l-243 -1097q-6 -27 -12.5 -64t-9.5 -59.5t-3 -26.5h-8q0 4 -3 25.5t-10.5 59.5t-13.5 67l-282 1095h-138l-260 -1097q-8 -29 -14 -66t-9 -58.5 t-3 -25.5h-8q0 4 -3.5 24.5t-9.5 57.5t-12 68l-266 1097h-174z" />
<glyph unicode="X" horiz-adv-x="1234" d="M12 0h170l365 635l358 -635h205l-448 784l393 682h-168l-309 -557l-314 557h-205l404 -700z" />
<glyph unicode="Y" horiz-adv-x="1255" d="M23 1466l458 -833v-633h176v633l459 833h-160l-366 -671l-363 671h-204z" />
<glyph unicode="Z" horiz-adv-x="1234" d="M35 0h991v152h-795l773 1198v116h-934v-145h729l-764 -1169v-152z" />
<glyph unicode="a" horiz-adv-x="1112" d="M18 0h152l109 326h450l107 -326h188l-408 1149h-192zM319 455l166 489q6 20 10.5 42t8.5 36q2 -14 7 -37t11 -43l168 -487h-371z" />
<glyph unicode="b" horiz-adv-x="1179" d="M152 0h409q90 0 169 10t155 60q66 41 95.5 107.5t29.5 135.5q0 51 -18.5 99.5t-54.5 87.5t-85.5 65.5t-110.5 34.5q49 6 89 30.5t70 59.5t45.5 79t15.5 89q0 76 -35 128t-91.5 86t-130 49.5t-151.5 15.5h-401v-1137zM319 131v401h211q68 0 124.5 -10t98.5 -34.5 t65.5 -65.5t23.5 -103q0 -55 -22.5 -92t-61.5 -58.5t-92.5 -29.5t-112.5 -8h-234zM319 655v355h199q53 0 103.5 -7.5t88.5 -26t61.5 -51t23.5 -83.5q0 -59 -27 -95t-70 -56.5t-99 -28t-114 -7.5h-166z" />
<glyph unicode="c" horiz-adv-x="1263" d="M78 575q0 -109 30.5 -215t95 -190t166 -135t242.5 -51q111 0 191 23.5t136 68.5t95 108.5t66 141.5l-154 28q-18 -53 -42.5 -96t-62.5 -72.5t-93.5 -46t-135.5 -16.5q-102 0 -169.5 43t-108.5 109.5t-57.5 143.5t-16.5 144q0 70 16.5 147.5t57.5 143.5t110.5 108 t173.5 42q78 0 130.5 -14.5t88 -43t59.5 -69.5t44 -93l160 25q-25 76 -63 138.5t-94 105.5t-135 66.5t-183 23.5q-143 0 -247 -46t-170.5 -125t-98 -181.5t-31.5 -215.5z" />
<glyph unicode="d" horiz-adv-x="1359" d="M160 0h485q141 0 245.5 48t173.5 127t103.5 182.5t34.5 213.5q0 121 -40 224.5t-117.5 179.5t-191.5 119t-261 43h-432v-1137zM328 131v875h256q117 0 201.5 -34t139 -92.5t81 -138t26.5 -170.5q0 -90 -25.5 -169.5t-80 -140t-139.5 -95.5t-203 -35h-256z" />
<glyph unicode="e" horiz-adv-x="1075" d="M160 0h774v131h-606v401h469v123h-469v349h587v131h-755v-1135z" />
<glyph unicode="f" horiz-adv-x="923" d="M154 0h168v532h471v123h-471v351h561v131h-729v-1137z" />
<glyph unicode="g" horiz-adv-x="1339" d="M90 553q0 -109 36 -211t108.5 -182t182 -128t257.5 -48q129 0 219 31.5t145.5 68.5t67.5 53l39 47v43t1 104.5t1 127.5v114h-424v-131h258v-198q-2 -4 -18.5 -24.5t-52.5 -43t-95 -42t-147 -19.5q-111 0 -188 40t-124 104.5t-68.5 143t-21.5 156.5q0 76 18.5 157 t62.5 146.5t120 108.5t190 43q135 0 211 -53.5t107 -133.5l160 33q-53 129 -164 206t-303 77q-152 0 -260.5 -47t-179 -127t-104.5 -187.5t-34 -228.5z" />
<glyph unicode="h" horiz-adv-x="1320" d="M152 0h167v535h584v-535h168v1137h-168v-469h-584v469h-167v-1137z" />
<glyph unicode="i" horiz-adv-x="577" d="M162 0h168v1137h-168v-1137z" />
<glyph unicode="j" horiz-adv-x="768" d="M31 8q2 0 48 -12t105 -12q113 0 182.5 32.5t108.5 94t52.5 147.5t13.5 193v686h-168v-727q0 -78 -8.5 -131.5t-32 -86t-64.5 -47t-106 -14.5q-27 0 -59.5 6t-51 11.5t-20.5 5.5v-146z" />
<glyph unicode="k" horiz-adv-x="1226" d="M162 0h168v328l176 192l448 -520h209l-549 629l447 508h-191l-540 -617v617h-168v-1137z" />
<glyph unicode="l" horiz-adv-x="958" d="M158 0h700v147h-532v990h-168v-1137z" />
<glyph unicode="m" horiz-adv-x="1683" d="M119 0h153l54 905q2 31 2 62q0 33 -2 41h4q2 -6 11 -40t19 -61l375 -907h127l350 860q20 47 32.5 90t15.5 54h4v-23v-39v-45v-45l51 -852h168l-64 1135h-248l-323 -803q-16 -41 -27.5 -78t-15.5 -53q-4 16 -15.5 54t-29.5 79l-328 801h-244z" />
<glyph unicode="n" horiz-adv-x="1302" d="M154 0h141v985q4 -10 15.5 -31.5t25.5 -42.5l584 -911h163v1135h-141v-922q-6 10 -16.5 28.5t-20.5 37.5l-543 856h-208v-1135z" />
<glyph unicode="o" horiz-adv-x="1339" d="M82 555q0 -109 31.5 -211t97 -182t168.5 -129t244 -49t242.5 53t167 137t97 190.5t31.5 210.5q0 106 -32.5 209t-98 183t-168 128t-239.5 48q-143 0 -246 -51.5t-168.5 -134.5t-96 -188t-30.5 -214zM258 555q0 72 17.5 152.5t59.5 148.5t112.5 112t179.5 44 q104 0 172.5 -43t109.5 -108.5t58.5 -143.5t17.5 -148t-17.5 -149.5t-59.5 -147t-111.5 -112.5t-173.5 -45q-102 0 -172 43t-113 107.5t-61.5 142t-18.5 147.5z" />
<glyph unicode="p" horiz-adv-x="1091" d="M121 0h168v459h235q88 0 167 21.5t137.5 64.5t92 105.5t33.5 146.5q0 90 -34.5 153.5t-96 104.5t-143.5 60.5t-176 19.5h-383v-1135zM289 586v426h229q121 0 193.5 -55.5t72.5 -159.5q0 -106 -79.5 -158.5t-198.5 -52.5h-217z" />
<glyph unicode="q" horiz-adv-x="1339" d="M82 555q0 -102 26.5 -198.5t84 -174.5t146.5 -130t216 -64l-6 -178h160l-4 178q117 14 202.5 70.5t142 138.5t84 181t27.5 197q0 106 -32.5 209t-98 183t-168 128t-239.5 48q-143 0 -246 -51.5t-168.5 -134.5t-96 -188t-30.5 -214zM258 553q0 74 17.5 154.5t59.5 148.5 t112.5 112t179.5 44q104 0 172.5 -43t109.5 -109.5t58.5 -144.5t17.5 -148t-17.5 -149.5t-59.5 -147t-111.5 -112.5t-173.5 -45q-102 0 -172 43t-113 107.5t-61.5 142t-18.5 147.5z" />
<glyph unicode="r" horiz-adv-x="1206" d="M152 0h167v492h132q82 -53 159.5 -137.5t139 -163t80.5 -107.5l55 -84h209q-2 4 -28 42t-74 102.5t-104.5 133t-118.5 132t-118 98.5q61 6 122 32.5t108 67.5t76.5 94.5t29.5 114.5q0 86 -36 145.5t-97 98.5t-140 56.5t-165 17.5h-397v-1135zM319 614v394h230 q55 0 104 -10.5t86 -33t58.5 -58.5t21.5 -87q0 -55 -22.5 -94t-62.5 -63.5t-92 -36t-114 -11.5h-209z" />
<glyph unicode="s" horiz-adv-x="1189" d="M78 281q33 -68 75 -123.5t100 -94t136 -59t182 -20.5q92 0 174 18t144.5 58t98.5 102.5t36 148.5q0 70 -27.5 122t-73.5 91t-108.5 65.5t-132.5 47.5l-160 43q-45 12 -84 25.5t-68.5 33t-46 49t-16.5 74.5q0 43 20.5 73t53.5 47t76 25.5t90 8.5q113 0 180.5 -37 t99.5 -123l154 35q-31 66 -71 113t-91 77.5t-116.5 46t-151.5 15.5t-160 -17.5t-129 -54.5t-87 -93t-32 -136q0 -68 26 -117t70 -85t103 -60.5t127 -42.5l178 -48q86 -23 144.5 -68.5t58.5 -125.5q0 -53 -22.5 -86t-59.5 -51.5t-87 -24.5t-106 -6q-86 0 -140 13.5t-90 38 t-59.5 58t-45.5 74.5z" />
<glyph unicode="t" horiz-adv-x="958" d="M0 993h373v-993h168v993h370v144h-911v-144z" />
<glyph unicode="u" horiz-adv-x="1263" d="M152 506q0 -127 21.5 -224.5t72.5 -165t137 -102t215 -34.5q123 0 208 37.5t136 106.5t73.5 166t22.5 216v631h-166v-631q0 -82 -10 -150.5t-38.5 -118t-80 -76t-133.5 -26.5q-92 0 -148 24.5t-88 73t-43.5 117t-11.5 156.5v631h-167v-631z" />
<glyph unicode="v" horiz-adv-x="1112" d="M16 1137l424 -1137h166l432 1137h-164l-282 -764q-10 -25 -19.5 -55.5t-16.5 -59.5t-12 -51.5t-7 -34.5q-4 12 -9.5 34.5t-12.5 51.5t-16.5 59.5t-17.5 55.5l-284 764h-181z" />
<glyph unicode="w" horiz-adv-x="1568" d="M23 1137l325 -1137h156l192 664q20 66 32.5 132t19.5 107q8 -39 21 -104.5t34 -130.5l205 -668h163l310 1137h-152l-188 -723q-18 -72 -30.5 -143.5t-16.5 -100.5q-4 29 -15.5 97.5t-34.5 142.5l-221 727h-129l-207 -734q-10 -35 -17 -69.5t-13 -67.5t-9.5 -58.5 t-5.5 -39.5q-2 14 -5 39.5t-8 57.5t-13 67t-17 67l-211 738h-165z" />
<glyph unicode="x" horiz-adv-x="1073" d="M8 0h168l313 485l308 -485h200l-393 602l340 533h-164l-260 -428l-268 428h-199l350 -541z" />
<glyph unicode="y" horiz-adv-x="1091" d="M16 1137l410 -697v-440h170v440l410 697h-158l-318 -555l-313 555h-201z" />
<glyph unicode="z" horiz-adv-x="1036" d="M31 0h889v147h-684l663 873v117h-836v-144h623l-655 -841v-152z" />
<glyph unicode="&#x2000;" horiz-adv-x="743" />
<glyph unicode="&#x2001;" horiz-adv-x="1487" />
<glyph unicode="&#x2002;" horiz-adv-x="743" />
<glyph unicode="&#x2003;" horiz-adv-x="1487" />
<glyph unicode="&#x2004;" horiz-adv-x="495" />
<glyph unicode="&#x2005;" horiz-adv-x="371" />
<glyph unicode="&#x2006;" horiz-adv-x="247" />
<glyph unicode="&#x2007;" horiz-adv-x="247" />
<glyph unicode="&#x2008;" horiz-adv-x="185" />
<glyph unicode="&#x2009;" horiz-adv-x="297" />
<glyph unicode="&#x200a;" horiz-adv-x="82" />
<glyph unicode="&#x202f;" horiz-adv-x="297" />
<glyph unicode="&#x205f;" horiz-adv-x="371" />
<glyph unicode="&#x25fc;" horiz-adv-x="1136" d="M0 0v1137h1137v-1137h-1137z" />
</font>
</defs>
</svg>
